HIERARCHY
ROOT Torso
{
    OFFSET 0 0 0
    CHANNELS 6 Xposition Yposition Zposition Zrotation Yrotation Xrotation
    JOINT LHip1 
    {   
        OFFSET 0.01 -0.06 0
        CHANNELS 3 Zrotation Yrotation Xrotation
        JOINT LHip2
        {
            OFFSET 0 -0.055 -0.055
            CHANNELS 3 Zrotation Yrotation Xrotation
            JOINT LHip3
            {
                OFFSET -0.01 0 0
                CHANNELS 3 Zrotation Yrotation Xrotation
                JOINT LThigh
                {
                    OFFSET 0 0 0.01
                    CHANNELS 3 Zrotation Yrotation Xrotation
                    JOINT LLeg
                    {
                        OFFSET -0.014 -0.120 -0.01
                        CHANNELS 3 Zrotation Yrotation Xrotation
                        JOINT LFoot
                        {
                            OFFSET 0.01 -0.1 0
                            CHANNELS 3 Zrotation Yrotation Xrotation
                            End Site
                            {
                                OFFSET -0.090 -0.035 0
                            }
                        }
                    }
                }
            }
        }
    }
    JOINT RHip1 
    {   
        OFFSET 0.01 -0.06 0
        CHANNELS 3 Zrotation Yrotation Xrotation
        JOINT RHip2
        {
            OFFSET 0 -0.055 0.055
            CHANNELS 3 Zrotation Yrotation Xrotation
            JOINT RHip3
            {
                OFFSET -0.01 0 0
                CHANNELS 3 Zrotation Yrotation Xrotation
                JOINT RThigh
                {
                    OFFSET 0 0 0.01
                    CHANNELS 3 Zrotation Yrotation Xrotation
                    JOINT RLeg
                    {
                        OFFSET -0.014 -0.120 -0.01
                        CHANNELS 3 Zrotation Yrotation Xrotation
                        JOINT RFoot
                        {
                            OFFSET 0.01 -0.1 0
                            CHANNELS 3 Zrotation Yrotation Xrotation
                            End Site
                            {
                                OFFSET -0.090 -0.035 0
                            }
                        }
                    }
                }
            }
        }
    }
    JOINT Neck
    {
        OFFSET 0 0.04 0
        CHANNELS 3 Zrotation Yrotation Xrotation
        JOINT Head
        {
            OFFSET 0 0.1 0
            CHANNELS 3 Zrotation Yrotation Xrotation
            End Site 
            {
                OFFSET 0 0.07 0
            }
        }
    }
    JOINT LUpperarm
    {
        OFFSET 0 0.075 -0.098
        CHANNELS 3 Zrotation Yrotation Xrotation
        JOINT LLowerarm
        {
            OFFSET -0.09 0.009 0
            CHANNELS 3 Zrotation Yrotation Xrotation
            End Site
            {
                OFFSET -0.105 0 0
            }
        }
    }
    JOINT RUpperarm
    {
        OFFSET 0 0.075 0.098
        CHANNELS 3 Zrotation Yrotation Xrotation
        JOINT RLowerarm
        {
            OFFSET -0.09 0.009 0
            CHANNELS 3 Zrotation Yrotation Xrotation
            End Site
            {
                OFFSET -0.105 0 0
            }
        }
    }
}
MOTION
Frames: 33
Frame Time: 0.04
0 0 0 0 0 0 0 0.0 0 0 0.0 0 1.72 0 0 0 0 0 -0.92 0 0 -0.0 0.0 0 0 -0.0 0 0 -0.0 0 0.0 0 0 0 0 0 0.0 0 0 0.0 -0.0 0 0 -0.0 0 0.0 0 0 0.0 0 -0.0 0 -0.0 -0.0 0.0 0 -0.0 0 -0.0 -0.0
0 0 0 0 0 0 0 0.0 0 0 0.0 0 3.44 0 0 0 0 0 -1.83 0 0 -0.0 0.0 0 0 -0.0 0 0 -0.0 0 0.0 0 0 0 0 0 0.0 0 0 0.0 -0.0 0 0 -0.0 0 0.0 0 0 0.0 0 -0.0 0 -0.0 -0.0 0.0 0 -0.0 0 -0.0 -0.0
0 0 0 0 0 0 0 0.0 0 0 0.0 0 5.16 0 0 0 0 0 -2.75 0 0 -0.0 0.0 0 0 -0.0 0 0 -0.0 0 0.0 0 0 0 0 0 0.0 0 0 0.0 -0.0 0 0 -0.0 0 0.0 0 0 0.0 0 -0.0 0 -0.0 -0.0 0.0 0 -0.0 0 -0.0 -0.0
0 0 0 0 0 0 0 0.0 0 0 0.0 0 6.88 0 0 0 0 0 -3.67 0 0 -0.0 0.0 0 0 -0.0 0 0 -0.0 0 0.0 0 0 0 0 0 0.0 0 0 0.0 -0.0 0 0 -0.0 0 0.0 0 0 0.0 0 0.0 0 -0.0 -0.0 0.0 0 -0.0 0 -0.0 -0.0
0 0 0 0 0 0 0 0.0 0 0 0.0 0 8.59 0 0 0 0 0 -4.58 0 0 -0.0 0.0 0 0 -0.0 0 0 -0.0 0 0.0 0 0 0 0 0 0.0 0 0 0.0 -0.0 0 0 -0.0 0 0.0 0 0 0.0 0 0.0 0 -0.0 -0.0 0.0 0 0.0 0 -0.0 -0.0
0 0 0 0 0 0 0 0.0 0 0 0.0 0 10.31 0 0 0 0 0 -5.5 0 0 -0.0 0.0 0 0 -0.0 0 0 -0.0 0 0.0 0 0 0 0 0 0.0 0 0 0.0 -0.0 0 0 -0.0 0 0.0 0 0 0.0 0 0.0 0 -0.0 -0.0 0.0 0 0.0 0 -0.0 -0.0
0 0 0 0 0 0 0 0.0 0 0 0.0 0 12.03 0 0 0 0 0 -6.42 0 0 -0.0 0.0 0 0 -0.0 0 0 -0.0 0 0.0 0 0 0 0 0 0.0 0 0 0.0 -0.0 0 0 -0.0 0 0.0 0 0 0.0 0 0.0 0 -0.0 -0.0 0.0 0 0.0 0 -0.0 -0.0
0 0 0 0 0 0 0 0.0 0 0 0.0 0 13.75 0 0 0 0 0 -7.33 0 0 -0.0 0.0 0 0 -0.0 0 0 -0.0 0 0.0 0 0 0 0 0 0.0 0 0 0.0 -0.0 0 0 -0.0 0 0.0 0 0 0.0 0 0.0 0 -0.0 -0.0 0.0 0 0.0 0 -0.0 -0.0
0 0 0 0 0 0 0 0.0 0 0 0.0 0 15.47 0 0 0 0 0 -8.25 0 0 -0.0 0.0 0 0 -0.0 0 0 -0.0 0 0.0 0 0 0 0 0 0.0 0 0 0.0 -0.0 0 0 -0.0 0 0.0 0 0 0.0 0 0.0 0 -0.0 -0.0 0.0 0 0.0 0 -0.0 -0.0
0 0 0 0 0 0 0 0.0 0 0 0.0 0 17.19 0 0 0 0 0 -9.17 0 0 -0.0 0.0 0 0 -0.0 0 0 -0.0 0 0.0 0 0 0 0 0 0.0 0 0 0.0 -0.0 0 0 -0.0 0 0.0 0 0 0.0 0 0.0 0 -0.0 -0.0 0.0 0 0.0 0 -0.0 -0.0
0 0 0 0 0 0 0 0.0 0 0 0.0 0 18.91 0 0 0 0 0 -10.08 0 0 -0.0 0.0 0 0 -0.0 0 0 -0.0 0 0.0 0 0 0 0 0 0.0 0 0 0.0 -0.0 0 0 -0.0 0 0.0 0 0 0.0 0 0.0 0 -0.0 -0.0 0.0 0 0.0 0 -0.0 -0.0
0 0 0 0 0 0 0 -0.0 0 0 0.74 0 23.56 0 0 0 0 0 -11.0 0 0 -2.25 0.0 0 0 0.0 0 0 0.77 0 3.22 0 0 0 0 0 0.0 0 0 1.68 0.0 0 0 0.0 0 0.0 0 0 -0.0 0 0.0 0 -0.0 0.0 -0.0 0 0.0 0 -0.0 0.0
0 0 0 0 0 0 0 -0.0 0 0 0.74 0 24.73 0 0 0 0 0 -11.92 0 0 -2.25 0.0 0 0 0.0 0 0 0.77 0 3.22 0 0 0 0 0 0.0 0 0 1.68 0.0 0 0 0.0 0 0.0 0 0 -0.0 0 0.0 0 -0.0 0.0 -0.0 0 0.0 0 -0.0 0.0
0 0 0 0 0 0 0 -0.0 0 0 0.74 0 26.45 0 0 0 0 0 -12.83 0 0 -2.25 0.0 0 0 0.0 0 0 0.77 0 3.22 0 0 0 0 0 0.0 0 0 1.68 0.0 0 0 0.0 0 0.0 0 0 -0.0 0 0.0 0 -0.0 0.0 -0.0 0 0.0 0 -0.0 0.0
0 0 0 0 0 0 0 -0.0 0 0 0.74 0 28.17 0 0 0 0 0 -13.75 0 0 -2.25 0.0 0 0 0.0 0 0 0.77 0 3.22 0 0 0 0 0 0.0 0 0 1.68 0.0 0 0 0.0 0 0.0 0 0 -0.0 0 0.0 0 -0.0 0.0 -0.0 0 0.0 0 -0.0 0.0
0 0 0 0 0 0 0 -0.0 0 0 0.74 0 29.89 0 0 0 0 0 -14.67 0 0 -2.25 0.0 0 0 0.0 0 0 0.77 0 3.22 0 0 0 0 0 0.0 0 0 1.68 0.0 0 0 0.0 0 0.0 0 0 -0.0 0 0.0 0 -0.0 0.0 -0.0 0 0.0 0 -0.0 0.0
0 0 0 0 0 0 0 -0.0 0 0 0.74 0 31.61 0 0 0 0 0 -15.58 0 0 -2.25 0.0 0 0 0.0 0 0 0.77 0 3.22 0 0 0 0 0 0.0 0 0 1.68 0.0 0 0 0.0 0 0.0 0 0 -0.0 0 0.0 0 -0.0 0.0 -0.0 0 0.0 0 -0.0 0.0
0 0 0 0 0 0 0 -0.0 0 0 0.74 0 33.33 0 0 0 0 0 -16.5 0 0 -2.25 -0.0 0 0 0.0 0 0 0.77 0 3.22 0 0 0 0 0 0.0 0 0 1.68 0.0 0 0 0.0 0 -0.0 0 0 -0.0 0 0.0 0 -0.0 0.0 -0.0 0 0.0 0 -0.0 0.0
0 0 0 0 0 0 0 -0.0 0 0 0.74 0 35.04 0 0 0 0 0 -17.42 0 0 -2.25 -0.0 0 0 0.0 0 0 0.77 0 3.22 0 0 0 0 0 0.0 0 0 1.68 0.0 0 0 0.0 0 -0.0 0 0 -0.0 0 0.0 0 -0.0 0.0 -0.0 0 0.0 0 -0.0 0.0
0 0 0 0 0 0 0 0.0 0 0 0.74 0 36.76 0 0 0 0 0 -18.33 0 0 -2.25 -0.0 0 0 0.0 0 0 0.77 0 3.22 0 0 0 0 0 0.0 0 0 1.68 0.0 0 0 0.0 0 -0.0 0 0 -0.0 0 0.0 0 -0.0 0.0 -0.0 0 0.0 0 -0.0 0.0
0 0 0 0 0 0 0 0.0 0 0 0.74 0 38.48 0 0 0 0 0 -19.25 0 0 -2.25 -0.0 0 0 0.0 0 0 0.77 0 3.22 0 0 0 0 0 0.0 0 0 1.68 0.0 0 0 0.0 0 -0.0 0 0 -0.0 0 0.0 0 -0.0 0.0 -0.0 0 0.0 0 -0.0 0.0
0 0 0 0 0 0 0 -0.0 0 0 0.74 0 40.2 0 0 0 0 0 -20.17 0 0 -2.25 0.0 0 0 0.0 0 0 0.77 0 3.22 0 0 0 0 0 0.0 0 0 1.68 0.0 0 0 0.0 0 -0.0 0 0 -0.0 0 0.0 0 -0.0 0.0 -0.0 0 0.0 0 -0.0 0.0
0 0 0 0 0 0 0 -0.0 0 0 0.74 0 41.92 0 0 0 0 0 -21.08 0 0 -2.25 0.0 0 0 -0.0 0 0 0.77 0 3.22 0 0 0 0 0 0.0 0 0 1.68 0.0 0 0 0.0 0 -0.0 0 0 -0.0 0 0.0 0 -0.0 0.0 -0.0 0 0.0 0 -0.0 0.0
0 0 0 0 0 0 0 -0.0 0 0 0.74 0 43.64 0 0 0 0 0 -22.0 0 0 -2.25 0.0 0 0 -0.0 0 0 0.77 0 3.22 0 0 0 0 0 0.0 0 0 1.68 0.0 0 0 0.0 0 -0.0 0 0 -0.0 0 0.0 0 -0.0 0.0 -0.0 0 0.0 0 -0.0 0.0
0 0 0 0 0 0 0 -0.0 0 0 0.74 0 45.36 0 0 0 0 0 -22.92 0 0 -2.25 0.0 0 0 -0.0 0 0 0.77 0 3.22 0 0 0 0 0 0.0 0 0 1.68 0.0 0 0 0.0 0 0.0 0 0 -0.0 0 0.0 0 -0.0 0.0 -0.0 0 0.0 0 -0.0 0.0
0 0 0 0 0 0 0 -0.0 0 0 0.74 0 47.08 0 0 0 0 0 -23.83 0 0 -2.25 0.0 0 0 -0.0 0 0 0.77 0 3.22 0 0 0 0 0 0.0 0 0 1.68 0.0 0 0 0.0 0 0.0 0 0 -0.0 0 0.0 0 -0.0 0.0 -0.0 0 0.0 0 -0.0 0.0
0 0 0 0 0 0 0 -0.0 0 0 0.74 0 48.79 0 0 0 0 0 -24.75 0 0 -2.25 0.0 0 0 -0.0 0 0 0.77 0 3.22 0 0 0 0 0 0.0 0 0 1.68 -0.0 0 0 0.0 0 0.0 0 0 -0.0 0 0.0 0 -0.0 0.0 -0.0 0 0.0 0 -0.0 0.0
0 0 0 0 0 0 0 -0.0 0 0 0.74 0 50.51 0 0 0 0 0 -25.67 0 0 -2.25 0.0 0 0 -0.0 0 0 0.77 0 3.22 0 0 0 0 0 0.0 0 0 1.68 0.0 0 0 0.0 0 0.0 0 0 -0.0 0 0.0 0 -0.0 0.0 -0.0 0 0.0 0 -0.0 0.0
0 0 0 0 0 0 0 -0.0 0 0 0.74 0 52.23 0 0 0 0 0 -26.58 0 0 -2.25 0.0 0 0 -0.0 0 0 0.77 0 3.22 0 0 0 0 0 0.0 0 0 1.68 0.0 0 0 0.0 0 -0.0 0 0 -0.0 0 0.0 0 -0.0 0.0 -0.0 0 0.0 0 -0.0 0.0
0 0 0 0 0 0 0 -0.0 0 0 0.74 0 53.95 0 0 0 0 0 -27.5 0 0 -2.25 0.0 0 0 0.0 0 0 0.77 0 3.22 0 0 0 0 0 0.0 0 0 1.68 0.0 0 0 0.0 0 -0.0 0 0 -0.0 0 0.0 0 -0.0 0.0 -0.0 0 0.0 0 -0.0 0.0
0 0 0 0 0 0 0 -0.0 0 0 0.74 0 55.67 0 0 0 0 0 -28.42 0 0 -2.25 0.0 0 0 0.0 0 0 0.77 0 3.22 0 0 0 0 0 0.0 0 0 1.68 0.0 0 0 0.0 0 0.0 0 0 -0.0 0 0.0 0 -0.0 0.0 -0.0 0 0.0 0 -0.0 0.0
0 0 0 0 0 0 0 -0.0 0 0 0.74 0 57.39 0 0 0 0 0 -29.33 0 0 -2.25 0.0 0 0 0.0 0 0 0.77 0 3.22 0 0 0 0 0 0.0 0 0 1.68 0.0 0 0 0.0 0 0.0 0 0 -0.0 0 0.0 0 -0.0 0.0 -0.0 0 0.0 0 -0.0 0.0
0 0 0 0 0 0 0 -0.0 0 0 0.74 0 59.11 0 0 0 0 0 -30.25 0 0 -2.25 0.0 0 0 0.0 0 0 0.77 0 3.22 0 0 0 0 0 0.0 0 0 1.68 0.0 0 0 0.0 0 0.0 0 0 -0.0 0 0.0 0 -0.0 0.0 -0.0 0 0.0 0 -0.0 0.0
